# xmcd
#
# Track frame offsets:
# 150
# 30827
# 35759
# 71883
# 76746
# 104553
# 110010
# 127270
# 132382
# 140631
# 158179
# 219236
# 252246
#
# Disc length: 3531 seconds
#
# Revision: 0
# Processed by: cddbd v1.5PL3 Copyright (c) Steve Scherf et al.
# Submitted via: Audion 3.0.2 (http://www.panic.com/audion/)
#
DISCID=c00dc90d
DTITLE=Carlebach, Shlomo - You Are With Me
DYEAR=1900
DGENRE=
TTITLE0=Love Story Nachamu
TTITLE1=Advertisement
TTITLE2=Tishtapechna Shifchi
TTITLE3=Advertisement-2
TTITLE4=Kiddush L'vana Dovid Melech
TTITLE5=Advertisement-3
TTITLE6=U'B'shofor Godol
TTITLE7=Advertisement-4
TTITLE8=Me Ya'ale
TTITLE9=Ki Ata Ima'de
TTITLE10=Heneni
TTITLE11=Story of the Redumsker
TTITLE12=Yibane-Yerushalayim
EXTD=
EXTT0=
EXTT1=
EXTT2=
EXTT3=
EXTT4=
EXTT5=
EXTT6=
EXTT7=
EXTT8=
EXTT9=
EXTT10=
EXTT11=
EXTT12=
PLAYORDER=
